<mxfile host="app.diagrams.net" agent="Mozilla/5.0 (Windows NT 10.0; Win64; x64) AppleWebKit/537.36 (KHTML, like Gecko) Chrome/137.0.0.0 Safari/537.36" version="27.1.4">
  <diagram name="Pagina-1" id="fstao1rTsG6bX0ReccVa">
    <mxGraphModel dx="1027" dy="323" grid="1" gridSize="10" guides="1" tooltips="1" connect="1" arrows="1" fold="1" page="1" pageScale="1" pageWidth="1169" pageHeight="827" math="0" shadow="0">
      <root>
        <mxCell id="0" />
        <mxCell id="1" parent="0" />
        <mxCell id="-MTlHBFxC1dhgQvG2mJh-1" value="Studente" style="swimlane;fontStyle=0;childLayout=stackLayout;horizontal=1;startSize=30;horizontalStack=0;resizeParent=1;resizeParentMax=0;resizeLast=0;collapsible=1;marginBottom=0;whiteSpace=wrap;html=1;" parent="1" vertex="1">
          <mxGeometry x="257.5" y="1400" width="175" height="180" as="geometry" />
        </mxCell>
        <mxCell id="ksHiljcpxTpXcH98oOzH-33" value="+Matricola: String [1]" style="text;strokeColor=none;fillColor=none;align=left;verticalAlign=middle;spacingLeft=4;spacingRight=4;overflow=hidden;points=[[0,0.5],[1,0.5]];portConstraint=eastwest;rotatable=0;whiteSpace=wrap;html=1;" vertex="1" parent="-MTlHBFxC1dhgQvG2mJh-1">
          <mxGeometry y="30" width="175" height="30" as="geometry" />
        </mxCell>
        <mxCell id="-MTlHBFxC1dhgQvG2mJh-57" value="+Email: String [1]" style="text;strokeColor=none;fillColor=none;align=left;verticalAlign=middle;spacingLeft=4;spacingRight=4;overflow=hidden;points=[[0,0.5],[1,0.5]];portConstraint=eastwest;rotatable=0;whiteSpace=wrap;html=1;" parent="-MTlHBFxC1dhgQvG2mJh-1" vertex="1">
          <mxGeometry y="60" width="175" height="30" as="geometry" />
        </mxCell>
        <mxCell id="ksHiljcpxTpXcH98oOzH-4" value="+Nome: String [1]" style="text;strokeColor=none;fillColor=none;align=left;verticalAlign=middle;spacingLeft=4;spacingRight=4;overflow=hidden;points=[[0,0.5],[1,0.5]];portConstraint=eastwest;rotatable=0;whiteSpace=wrap;html=1;" vertex="1" parent="-MTlHBFxC1dhgQvG2mJh-1">
          <mxGeometry y="90" width="175" height="30" as="geometry" />
        </mxCell>
        <mxCell id="-MTlHBFxC1dhgQvG2mJh-3" value="+Cognome: String [1]" style="text;strokeColor=none;fillColor=none;align=left;verticalAlign=middle;spacingLeft=4;spacingRight=4;overflow=hidden;points=[[0,0.5],[1,0.5]];portConstraint=eastwest;rotatable=0;whiteSpace=wrap;html=1;" parent="-MTlHBFxC1dhgQvG2mJh-1" vertex="1">
          <mxGeometry y="120" width="175" height="30" as="geometry" />
        </mxCell>
        <mxCell id="mf55nS-00f5Hyj-tEOja-1" value="+Password: String [1]" style="text;strokeColor=none;fillColor=none;align=left;verticalAlign=middle;spacingLeft=4;spacingRight=4;overflow=hidden;points=[[0,0.5],[1,0.5]];portConstraint=eastwest;rotatable=0;whiteSpace=wrap;html=1;" parent="-MTlHBFxC1dhgQvG2mJh-1" vertex="1">
          <mxGeometry y="150" width="175" height="30" as="geometry" />
        </mxCell>
        <mxCell id="ksHiljcpxTpXcH98oOzH-39" style="edgeStyle=orthogonalEdgeStyle;rounded=0;orthogonalLoop=1;jettySize=auto;html=1;exitX=0.5;exitY=1;exitDx=0;exitDy=0;entryX=0.5;entryY=0;entryDx=0;entryDy=0;endArrow=none;startFill=0;" edge="1" parent="1" source="-MTlHBFxC1dhgQvG2mJh-5" target="ksHiljcpxTpXcH98oOzH-34">
          <mxGeometry relative="1" as="geometry" />
        </mxCell>
        <mxCell id="-MTlHBFxC1dhgQvG2mJh-5" value="Oggetto" style="swimlane;fontStyle=0;childLayout=stackLayout;horizontal=1;startSize=30;horizontalStack=0;resizeParent=1;resizeParentMax=0;resizeLast=0;collapsible=1;marginBottom=0;whiteSpace=wrap;html=1;" parent="1" vertex="1">
          <mxGeometry x="250" y="1692.01" width="190" height="150" as="geometry" />
        </mxCell>
        <mxCell id="D3fO-mZiojXncixPVTUd-46" value="+ImmagineOggetto: String [1]" style="text;strokeColor=none;fillColor=none;align=left;verticalAlign=middle;spacingLeft=4;spacingRight=4;overflow=hidden;points=[[0,0.5],[1,0.5]];portConstraint=eastwest;rotatable=0;whiteSpace=wrap;html=1;" parent="-MTlHBFxC1dhgQvG2mJh-5" vertex="1">
          <mxGeometry y="30" width="190" height="30" as="geometry" />
        </mxCell>
        <mxCell id="ksHiljcpxTpXcH98oOzH-5" value="+NomeOggetto: String [1]" style="text;strokeColor=none;fillColor=none;align=left;verticalAlign=middle;spacingLeft=4;spacingRight=4;overflow=hidden;points=[[0,0.5],[1,0.5]];portConstraint=eastwest;rotatable=0;whiteSpace=wrap;html=1;" vertex="1" parent="-MTlHBFxC1dhgQvG2mJh-5">
          <mxGeometry y="60" width="190" height="30" as="geometry" />
        </mxCell>
        <mxCell id="ksHiljcpxTpXcH98oOzH-6" value="+Categoria: [1] enum" style="text;strokeColor=none;fillColor=none;align=left;verticalAlign=middle;spacingLeft=4;spacingRight=4;overflow=hidden;points=[[0,0.5],[1,0.5]];portConstraint=eastwest;rotatable=0;whiteSpace=wrap;html=1;" vertex="1" parent="-MTlHBFxC1dhgQvG2mJh-5">
          <mxGeometry y="90" width="190" height="30" as="geometry" />
        </mxCell>
        <mxCell id="-MTlHBFxC1dhgQvG2mJh-56" value="+Descrizione: String [1]" style="text;strokeColor=none;fillColor=none;align=left;verticalAlign=middle;spacingLeft=4;spacingRight=4;overflow=hidden;points=[[0,0.5],[1,0.5]];portConstraint=eastwest;rotatable=0;whiteSpace=wrap;html=1;" parent="-MTlHBFxC1dhgQvG2mJh-5" vertex="1">
          <mxGeometry y="120" width="190" height="30" as="geometry" />
        </mxCell>
        <mxCell id="-MTlHBFxC1dhgQvG2mJh-9" value="Annuncio" style="swimlane;fontStyle=0;childLayout=stackLayout;horizontal=1;startSize=30;horizontalStack=0;resizeParent=1;resizeParentMax=0;resizeLast=0;collapsible=1;marginBottom=0;whiteSpace=wrap;html=1;" parent="1" vertex="1">
          <mxGeometry x="630.88" y="1433.82" width="210" height="210" as="geometry" />
        </mxCell>
        <mxCell id="D3fO-mZiojXncixPVTUd-1" value="+TitoloAnnuncio: [1] String" style="text;strokeColor=none;fillColor=none;align=left;verticalAlign=middle;spacingLeft=4;spacingRight=4;overflow=hidden;points=[[0,0.5],[1,0.5]];portConstraint=eastwest;rotatable=0;whiteSpace=wrap;html=1;" parent="-MTlHBFxC1dhgQvG2mJh-9" vertex="1">
          <mxGeometry y="30" width="210" height="30" as="geometry" />
        </mxCell>
        <mxCell id="-MTlHBFxC1dhgQvG2mJh-10" value="+StatoAnnuncio: [0..1] &amp;lt;&amp;lt;enum&amp;gt;&amp;gt;" style="text;strokeColor=none;fillColor=none;align=left;verticalAlign=middle;spacingLeft=4;spacingRight=4;overflow=hidden;points=[[0,0.5],[1,0.5]];portConstraint=eastwest;rotatable=0;whiteSpace=wrap;html=1;" parent="-MTlHBFxC1dhgQvG2mJh-9" vertex="1">
          <mxGeometry y="60" width="210" height="30" as="geometry" />
        </mxCell>
        <mxCell id="-MTlHBFxC1dhgQvG2mJh-15" value="+FasciaOrariaInizio: [1] Timestamp" style="text;strokeColor=none;fillColor=none;align=left;verticalAlign=middle;spacingLeft=4;spacingRight=4;overflow=hidden;points=[[0,0.5],[1,0.5]];portConstraint=eastwest;rotatable=0;whiteSpace=wrap;html=1;" parent="-MTlHBFxC1dhgQvG2mJh-9" vertex="1">
          <mxGeometry y="90" width="210" height="30" as="geometry" />
        </mxCell>
        <mxCell id="mf55nS-00f5Hyj-tEOja-5" value="+FasciaOrariaFine: [1] Timestamp" style="text;strokeColor=none;fillColor=none;align=left;verticalAlign=middle;spacingLeft=4;spacingRight=4;overflow=hidden;points=[[0,0.5],[1,0.5]];portConstraint=eastwest;rotatable=0;whiteSpace=wrap;html=1;" parent="-MTlHBFxC1dhgQvG2mJh-9" vertex="1">
          <mxGeometry y="120" width="210" height="30" as="geometry" />
        </mxCell>
        <mxCell id="-MTlHBFxC1dhgQvG2mJh-16" value="+DescrizioneAnnuncio: [0..1] String" style="text;strokeColor=none;fillColor=none;align=left;verticalAlign=middle;spacingLeft=4;spacingRight=4;overflow=hidden;points=[[0,0.5],[1,0.5]];portConstraint=eastwest;rotatable=0;whiteSpace=wrap;html=1;" parent="-MTlHBFxC1dhgQvG2mJh-9" vertex="1">
          <mxGeometry y="150" width="210" height="30" as="geometry" />
        </mxCell>
        <mxCell id="D3fO-mZiojXncixPVTUd-45" value="+Sede: [1]: String" style="text;strokeColor=none;fillColor=none;align=left;verticalAlign=middle;spacingLeft=4;spacingRight=4;overflow=hidden;points=[[0,0.5],[1,0.5]];portConstraint=eastwest;rotatable=0;whiteSpace=wrap;html=1;" parent="-MTlHBFxC1dhgQvG2mJh-9" vertex="1">
          <mxGeometry y="180" width="210" height="30" as="geometry" />
        </mxCell>
        <mxCell id="-MTlHBFxC1dhgQvG2mJh-18" value="" style="triangle;whiteSpace=wrap;html=1;rotation=-75;" parent="1" vertex="1">
          <mxGeometry x="639.12" y="1670.6" width="26.76" height="30.81" as="geometry" />
        </mxCell>
        <mxCell id="-MTlHBFxC1dhgQvG2mJh-19" value="" style="triangle;whiteSpace=wrap;html=1;rotation=-90;" parent="1" vertex="1">
          <mxGeometry x="724.44" y="1672.55" width="22.87" height="30.81" as="geometry" />
        </mxCell>
        <mxCell id="-MTlHBFxC1dhgQvG2mJh-20" value="" style="triangle;whiteSpace=wrap;html=1;rotation=-105;" parent="1" vertex="1">
          <mxGeometry x="805.885" y="1670.5949999999998" width="26.76" height="30.81" as="geometry" />
        </mxCell>
        <mxCell id="-MTlHBFxC1dhgQvG2mJh-21" value="" style="endArrow=none;html=1;rounded=0;entryX=0;entryY=0.5;entryDx=0;entryDy=0;exitX=0.75;exitY=0;exitDx=0;exitDy=0;" parent="1" source="-MTlHBFxC1dhgQvG2mJh-30" target="-MTlHBFxC1dhgQvG2mJh-18" edge="1">
          <mxGeometry width="50" height="50" relative="1" as="geometry">
            <mxPoint x="615.88" y="1803.42" as="sourcePoint" />
            <mxPoint x="645.88" y="1732.22" as="targetPoint" />
          </mxGeometry>
        </mxCell>
        <mxCell id="-MTlHBFxC1dhgQvG2mJh-22" value="" style="endArrow=none;html=1;rounded=0;entryX=0;entryY=0.5;entryDx=0;entryDy=0;exitX=0.5;exitY=0;exitDx=0;exitDy=0;" parent="1" target="-MTlHBFxC1dhgQvG2mJh-19" edge="1">
          <mxGeometry width="50" height="50" relative="1" as="geometry">
            <mxPoint x="735.88" y="1803.42" as="sourcePoint" />
            <mxPoint x="735.8830861774546" y="1730.201194945552" as="targetPoint" />
          </mxGeometry>
        </mxCell>
        <mxCell id="-MTlHBFxC1dhgQvG2mJh-23" value="" style="endArrow=none;html=1;rounded=0;entryX=0;entryY=0.5;entryDx=0;entryDy=0;exitX=0.25;exitY=0;exitDx=0;exitDy=0;" parent="1" source="-MTlHBFxC1dhgQvG2mJh-42" target="-MTlHBFxC1dhgQvG2mJh-20" edge="1">
          <mxGeometry width="50" height="50" relative="1" as="geometry">
            <mxPoint x="835.88" y="1783.42" as="sourcePoint" />
            <mxPoint x="815.88" y="1753.42" as="targetPoint" />
          </mxGeometry>
        </mxCell>
        <mxCell id="-MTlHBFxC1dhgQvG2mJh-30" value="AnnuncioVendita" style="swimlane;fontStyle=0;childLayout=stackLayout;horizontal=1;startSize=30;horizontalStack=0;resizeParent=1;resizeParentMax=0;resizeLast=0;collapsible=1;marginBottom=0;whiteSpace=wrap;html=1;" parent="1" vertex="1">
          <mxGeometry x="510.88" y="1803.42" width="140" height="60" as="geometry" />
        </mxCell>
        <mxCell id="ksHiljcpxTpXcH98oOzH-3" value="+Prezzo: [1] Float" style="text;strokeColor=none;fillColor=none;align=left;verticalAlign=middle;spacingLeft=4;spacingRight=4;overflow=hidden;points=[[0,0.5],[1,0.5]];portConstraint=eastwest;rotatable=0;whiteSpace=wrap;html=1;" vertex="1" parent="-MTlHBFxC1dhgQvG2mJh-30">
          <mxGeometry y="30" width="140" height="30" as="geometry" />
        </mxCell>
        <mxCell id="-MTlHBFxC1dhgQvG2mJh-36" value="AnnuncioRegalo" style="swimlane;fontStyle=0;childLayout=stackLayout;horizontal=1;startSize=30;horizontalStack=0;resizeParent=1;resizeParentMax=0;resizeLast=0;collapsible=1;marginBottom=0;whiteSpace=wrap;html=1;" parent="1" vertex="1">
          <mxGeometry x="665.88" y="1803.42" width="140" height="60" as="geometry" />
        </mxCell>
        <mxCell id="-MTlHBFxC1dhgQvG2mJh-42" value="AnnuncioScambio" style="swimlane;fontStyle=0;childLayout=stackLayout;horizontal=1;startSize=30;horizontalStack=0;resizeParent=1;resizeParentMax=0;resizeLast=0;collapsible=1;marginBottom=0;whiteSpace=wrap;html=1;" parent="1" vertex="1">
          <mxGeometry x="825.88" y="1803.42" width="140" height="60" as="geometry" />
        </mxCell>
        <mxCell id="-MTlHBFxC1dhgQvG2mJh-53" value="" style="endArrow=none;dashed=1;html=1;rounded=0;" parent="1" edge="1">
          <mxGeometry width="50" height="50" relative="1" as="geometry">
            <mxPoint x="535.88" y="1743.42" as="sourcePoint" />
            <mxPoint x="975.88" y="1743.42" as="targetPoint" />
          </mxGeometry>
        </mxCell>
        <mxCell id="-MTlHBFxC1dhgQvG2mJh-54" value="{totale/disgiunta}" style="text;strokeColor=none;fillColor=none;align=left;verticalAlign=middle;spacingLeft=4;spacingRight=4;overflow=hidden;points=[[0,0.5],[1,0.5]];portConstraint=eastwest;rotatable=0;whiteSpace=wrap;html=1;" parent="1" vertex="1">
          <mxGeometry x="865.88" y="1713.42" width="100" height="30" as="geometry" />
        </mxCell>
        <mxCell id="-MTlHBFxC1dhgQvG2mJh-65" value="" style="endArrow=none;html=1;rounded=0;exitX=0;exitY=0.5;exitDx=0;exitDy=0;entryX=1;entryY=0.5;entryDx=0;entryDy=0;" parent="1" source="D3fO-mZiojXncixPVTUd-1" target="-MTlHBFxC1dhgQvG2mJh-3" edge="1">
          <mxGeometry width="50" height="50" relative="1" as="geometry">
            <mxPoint x="482.5" y="1510" as="sourcePoint" />
            <mxPoint x="395" y="1430" as="targetPoint" />
          </mxGeometry>
        </mxCell>
        <mxCell id="ksHiljcpxTpXcH98oOzH-23" style="edgeStyle=orthogonalEdgeStyle;rounded=0;orthogonalLoop=1;jettySize=auto;html=1;exitX=1;exitY=0.5;exitDx=0;exitDy=0;entryX=0;entryY=0.5;entryDx=0;entryDy=0;endArrow=none;startFill=0;" edge="1" parent="1" source="-MTlHBFxC1dhgQvG2mJh-71" target="ksHiljcpxTpXcH98oOzH-21">
          <mxGeometry relative="1" as="geometry">
            <Array as="points">
              <mxPoint x="585" y="1170" />
              <mxPoint x="630" y="1170" />
              <mxPoint x="630" y="1155" />
            </Array>
          </mxGeometry>
        </mxCell>
        <mxCell id="ksHiljcpxTpXcH98oOzH-30" style="edgeStyle=orthogonalEdgeStyle;rounded=0;orthogonalLoop=1;jettySize=auto;html=1;exitX=0.5;exitY=1;exitDx=0;exitDy=0;entryX=0.5;entryY=0;entryDx=0;entryDy=0;endArrow=none;startFill=0;" edge="1" parent="1" source="-MTlHBFxC1dhgQvG2mJh-71" target="-MTlHBFxC1dhgQvG2mJh-9">
          <mxGeometry relative="1" as="geometry" />
        </mxCell>
        <mxCell id="-MTlHBFxC1dhgQvG2mJh-71" value="Offerta" style="swimlane;fontStyle=0;childLayout=stackLayout;horizontal=1;startSize=30;horizontalStack=0;resizeParent=1;resizeParentMax=0;resizeLast=0;collapsible=1;marginBottom=0;whiteSpace=wrap;html=1;" parent="1" vertex="1">
          <mxGeometry x="395" y="1128.99" width="190" height="60" as="geometry" />
        </mxCell>
        <mxCell id="-MTlHBFxC1dhgQvG2mJh-72" value="+StatoOfferta: [1] enum" style="text;strokeColor=none;fillColor=none;align=left;verticalAlign=middle;spacingLeft=4;spacingRight=4;overflow=hidden;points=[[0,0.5],[1,0.5]];portConstraint=eastwest;rotatable=0;whiteSpace=wrap;html=1;" parent="-MTlHBFxC1dhgQvG2mJh-71" vertex="1">
          <mxGeometry y="30" width="190" height="30" as="geometry" />
        </mxCell>
        <mxCell id="-MTlHBFxC1dhgQvG2mJh-76" value="" style="triangle;whiteSpace=wrap;html=1;rotation=60;" parent="1" vertex="1">
          <mxGeometry x="412.5" y="1098.18" width="26.76" height="30.81" as="geometry" />
        </mxCell>
        <mxCell id="-MTlHBFxC1dhgQvG2mJh-77" value="" style="triangle;whiteSpace=wrap;html=1;rotation=90;" parent="1" vertex="1">
          <mxGeometry x="474.12308617745475" y="1098.1761949455522" width="26.76" height="30.81" as="geometry" />
        </mxCell>
        <mxCell id="-MTlHBFxC1dhgQvG2mJh-78" value="" style="triangle;whiteSpace=wrap;html=1;rotation=120;" parent="1" vertex="1">
          <mxGeometry x="537.4950000000001" y="1098.1750000000002" width="26.76" height="30.81" as="geometry" />
        </mxCell>
        <mxCell id="-MTlHBFxC1dhgQvG2mJh-79" value="" style="endArrow=none;html=1;rounded=0;exitX=0.716;exitY=0.995;exitDx=0;exitDy=0;exitPerimeter=0;entryX=0;entryY=0.5;entryDx=0;entryDy=0;" parent="1" target="-MTlHBFxC1dhgQvG2mJh-76" edge="1">
          <mxGeometry width="50" height="50" relative="1" as="geometry">
            <mxPoint x="365.2399999999998" y="969.8499999999999" as="sourcePoint" />
            <mxPoint x="415" y="1097.99" as="targetPoint" />
          </mxGeometry>
        </mxCell>
        <mxCell id="-MTlHBFxC1dhgQvG2mJh-80" value="" style="endArrow=none;html=1;rounded=0;entryX=0.5;entryY=1;entryDx=0;entryDy=0;exitX=0;exitY=0.5;exitDx=0;exitDy=0;" parent="1" source="-MTlHBFxC1dhgQvG2mJh-77" target="-MTlHBFxC1dhgQvG2mJh-84" edge="1">
          <mxGeometry width="50" height="50" relative="1" as="geometry">
            <mxPoint x="482.02" y="1098.18" as="sourcePoint" />
            <mxPoint x="482.0430861774546" y="1025.151194945552" as="targetPoint" />
          </mxGeometry>
        </mxCell>
        <mxCell id="-MTlHBFxC1dhgQvG2mJh-81" value="" style="endArrow=none;html=1;rounded=0;entryX=0;entryY=0.5;entryDx=0;entryDy=0;exitX=0.25;exitY=1;exitDx=0;exitDy=0;" parent="1" source="-MTlHBFxC1dhgQvG2mJh-85" target="-MTlHBFxC1dhgQvG2mJh-78" edge="1">
          <mxGeometry width="50" height="50" relative="1" as="geometry">
            <mxPoint x="552.5" y="1140" as="sourcePoint" />
            <mxPoint x="507.5" y="1090" as="targetPoint" />
          </mxGeometry>
        </mxCell>
        <mxCell id="ksHiljcpxTpXcH98oOzH-27" style="edgeStyle=orthogonalEdgeStyle;rounded=0;orthogonalLoop=1;jettySize=auto;html=1;exitX=0;exitY=0.5;exitDx=0;exitDy=0;entryX=0;entryY=0.5;entryDx=0;entryDy=0;endArrow=none;startFill=0;" edge="1" parent="1" source="-MTlHBFxC1dhgQvG2mJh-82" target="ksHiljcpxTpXcH98oOzH-6">
          <mxGeometry relative="1" as="geometry">
            <Array as="points">
              <mxPoint x="160" y="940" />
              <mxPoint x="160" y="1797" />
            </Array>
          </mxGeometry>
        </mxCell>
        <mxCell id="-MTlHBFxC1dhgQvG2mJh-82" value="OffertaScambio" style="swimlane;fontStyle=0;childLayout=stackLayout;horizontal=1;startSize=30;horizontalStack=0;resizeParent=1;resizeParentMax=0;resizeLast=0;collapsible=1;marginBottom=0;whiteSpace=wrap;html=1;" parent="1" vertex="1">
          <mxGeometry x="220" y="910" width="185" height="60" as="geometry" />
        </mxCell>
        <mxCell id="ksHiljcpxTpXcH98oOzH-15" value="+OggettiOfferti: [1]: String&amp;nbsp;" style="text;strokeColor=none;fillColor=none;align=left;verticalAlign=middle;spacingLeft=4;spacingRight=4;overflow=hidden;points=[[0,0.5],[1,0.5]];portConstraint=eastwest;rotatable=0;whiteSpace=wrap;html=1;" vertex="1" parent="-MTlHBFxC1dhgQvG2mJh-82">
          <mxGeometry y="30" width="185" height="30" as="geometry" />
        </mxCell>
        <mxCell id="-MTlHBFxC1dhgQvG2mJh-84" value="OffertaRegalo" style="swimlane;fontStyle=0;childLayout=stackLayout;horizontal=1;startSize=30;horizontalStack=0;resizeParent=1;resizeParentMax=0;resizeLast=0;collapsible=1;marginBottom=0;whiteSpace=wrap;html=1;" parent="1" vertex="1">
          <mxGeometry x="420" y="910" width="140" height="60" as="geometry" />
        </mxCell>
        <mxCell id="-MTlHBFxC1dhgQvG2mJh-85" value="OffertaAcquisto" style="swimlane;fontStyle=0;childLayout=stackLayout;horizontal=1;startSize=30;horizontalStack=0;resizeParent=1;resizeParentMax=0;resizeLast=0;collapsible=1;marginBottom=0;whiteSpace=wrap;html=1;" parent="1" vertex="1">
          <mxGeometry x="580" y="910" width="210" height="60" as="geometry" />
        </mxCell>
        <mxCell id="ksHiljcpxTpXcH98oOzH-17" value="+PrezzoOfferto: [1] Float" style="text;strokeColor=none;fillColor=none;align=left;verticalAlign=middle;spacingLeft=4;spacingRight=4;overflow=hidden;points=[[0,0.5],[1,0.5]];portConstraint=eastwest;rotatable=0;whiteSpace=wrap;html=1;" vertex="1" parent="-MTlHBFxC1dhgQvG2mJh-85">
          <mxGeometry y="30" width="210" height="30" as="geometry" />
        </mxCell>
        <mxCell id="-MTlHBFxC1dhgQvG2mJh-86" value="" style="endArrow=none;dashed=1;html=1;rounded=0;" parent="1" edge="1">
          <mxGeometry width="50" height="50" relative="1" as="geometry">
            <mxPoint x="295" y="1037.99" as="sourcePoint" />
            <mxPoint x="735" y="1037.99" as="targetPoint" />
          </mxGeometry>
        </mxCell>
        <mxCell id="-MTlHBFxC1dhgQvG2mJh-87" value="{totale/disgiunta}" style="text;strokeColor=none;fillColor=none;align=left;verticalAlign=middle;spacingLeft=4;spacingRight=4;overflow=hidden;points=[[0,0.5],[1,0.5]];portConstraint=eastwest;rotatable=0;whiteSpace=wrap;html=1;" parent="1" vertex="1">
          <mxGeometry x="615" y="1007.99" width="100" height="30" as="geometry" />
        </mxCell>
        <mxCell id="-MTlHBFxC1dhgQvG2mJh-90" value="" style="endArrow=none;html=1;rounded=0;entryX=0;entryY=0.5;entryDx=0;entryDy=0;exitX=1;exitY=0;exitDx=0;exitDy=0;" parent="1" source="-MTlHBFxC1dhgQvG2mJh-5" target="mf55nS-00f5Hyj-tEOja-5" edge="1">
          <mxGeometry width="50" height="50" relative="1" as="geometry">
            <mxPoint x="440" y="1635" as="sourcePoint" />
            <mxPoint x="417.5" y="1660" as="targetPoint" />
          </mxGeometry>
        </mxCell>
        <mxCell id="mf55nS-00f5Hyj-tEOja-9" value="&lt;b&gt;StatoAnnuncio&amp;lt;&amp;lt;enum&amp;gt;&amp;gt;&lt;/b&gt;" style="swimlane;fontStyle=0;childLayout=stackLayout;horizontal=1;startSize=30;horizontalStack=0;resizeParent=1;resizeParentMax=0;resizeLast=0;collapsible=1;marginBottom=0;whiteSpace=wrap;html=1;" parent="1" vertex="1">
          <mxGeometry x="940" y="1390" width="190" height="120" as="geometry" />
        </mxCell>
        <mxCell id="mf55nS-00f5Hyj-tEOja-10" value="venduto" style="text;strokeColor=none;fillColor=none;align=center;verticalAlign=middle;spacingLeft=4;spacingRight=4;overflow=hidden;points=[[0,0.5],[1,0.5]];portConstraint=eastwest;rotatable=0;whiteSpace=wrap;html=1;" parent="mf55nS-00f5Hyj-tEOja-9" vertex="1">
          <mxGeometry y="30" width="190" height="30" as="geometry" />
        </mxCell>
        <mxCell id="mf55nS-00f5Hyj-tEOja-11" value="scambiato" style="text;strokeColor=none;fillColor=none;align=center;verticalAlign=middle;spacingLeft=4;spacingRight=4;overflow=hidden;points=[[0,0.5],[1,0.5]];portConstraint=eastwest;rotatable=0;whiteSpace=wrap;html=1;" parent="mf55nS-00f5Hyj-tEOja-9" vertex="1">
          <mxGeometry y="60" width="190" height="30" as="geometry" />
        </mxCell>
        <mxCell id="mf55nS-00f5Hyj-tEOja-13" value="regalato" style="text;strokeColor=none;fillColor=none;align=center;verticalAlign=middle;spacingLeft=4;spacingRight=4;overflow=hidden;points=[[0,0.5],[1,0.5]];portConstraint=eastwest;rotatable=0;whiteSpace=wrap;html=1;" parent="mf55nS-00f5Hyj-tEOja-9" vertex="1">
          <mxGeometry y="90" width="190" height="30" as="geometry" />
        </mxCell>
        <mxCell id="mf55nS-00f5Hyj-tEOja-12" style="edgeStyle=orthogonalEdgeStyle;rounded=0;orthogonalLoop=1;jettySize=auto;html=1;exitX=1;exitY=0.5;exitDx=0;exitDy=0;entryX=0;entryY=0.5;entryDx=0;entryDy=0;" parent="1" source="-MTlHBFxC1dhgQvG2mJh-10" target="mf55nS-00f5Hyj-tEOja-11" edge="1">
          <mxGeometry relative="1" as="geometry" />
        </mxCell>
        <mxCell id="D3fO-mZiojXncixPVTUd-41" value="" style="endArrow=none;html=1;rounded=0;exitX=0.5;exitY=0;exitDx=0;exitDy=0;entryX=0.5;entryY=1;entryDx=0;entryDy=0;" parent="1" source="-MTlHBFxC1dhgQvG2mJh-5" target="-MTlHBFxC1dhgQvG2mJh-1" edge="1">
          <mxGeometry width="50" height="50" relative="1" as="geometry">
            <mxPoint x="340" y="1690" as="sourcePoint" />
            <mxPoint x="340" y="1520" as="targetPoint" />
          </mxGeometry>
        </mxCell>
        <mxCell id="ksHiljcpxTpXcH98oOzH-7" value="+Pubblica&lt;div&gt;0.*&lt;/div&gt;" style="text;html=1;align=center;verticalAlign=middle;resizable=0;points=[];autosize=1;strokeColor=none;fillColor=none;" vertex="1" parent="1">
          <mxGeometry x="559.12" y="1440" width="80" height="40" as="geometry" />
        </mxCell>
        <mxCell id="ksHiljcpxTpXcH98oOzH-8" value="+è pubblicato&lt;div&gt;1&lt;/div&gt;" style="text;html=1;align=center;verticalAlign=middle;resizable=0;points=[];autosize=1;strokeColor=none;fillColor=none;" vertex="1" parent="1">
          <mxGeometry x="420.88" y="1480" width="100" height="40" as="geometry" />
        </mxCell>
        <mxCell id="ksHiljcpxTpXcH98oOzH-11" value="+Posseduto&lt;div&gt;1&lt;/div&gt;" style="text;html=1;align=center;verticalAlign=middle;resizable=0;points=[];autosize=1;strokeColor=none;fillColor=none;" vertex="1" parent="1">
          <mxGeometry x="340" y="1590" width="90" height="40" as="geometry" />
        </mxCell>
        <mxCell id="ksHiljcpxTpXcH98oOzH-12" value="+Possiede&lt;div&gt;0.*&lt;/div&gt;" style="text;html=1;align=center;verticalAlign=middle;resizable=0;points=[];autosize=1;strokeColor=none;fillColor=none;" vertex="1" parent="1">
          <mxGeometry x="335" y="1652.01" width="80" height="40" as="geometry" />
        </mxCell>
        <mxCell id="ksHiljcpxTpXcH98oOzH-13" value="+Propone&lt;div&gt;1&lt;/div&gt;" style="text;html=1;align=center;verticalAlign=middle;resizable=0;points=[];autosize=1;strokeColor=none;fillColor=none;" vertex="1" parent="1">
          <mxGeometry x="430.88" y="1692.01" width="80" height="40" as="geometry" />
        </mxCell>
        <mxCell id="ksHiljcpxTpXcH98oOzH-14" value="+Fa parte&lt;div&gt;0.1&lt;/div&gt;" style="text;html=1;align=center;verticalAlign=middle;resizable=0;points=[];autosize=1;strokeColor=none;fillColor=none;" vertex="1" parent="1">
          <mxGeometry x="559.12" y="1600" width="80" height="40" as="geometry" />
        </mxCell>
        <mxCell id="ksHiljcpxTpXcH98oOzH-19" value="&lt;span style=&quot;text-align: left;&quot;&gt;StatoOfferta&lt;/span&gt;&lt;b&gt;&amp;lt;&amp;lt;enum&amp;gt;&amp;gt;&lt;/b&gt;" style="swimlane;fontStyle=0;childLayout=stackLayout;horizontal=1;startSize=30;horizontalStack=0;resizeParent=1;resizeParentMax=0;resizeLast=0;collapsible=1;marginBottom=0;whiteSpace=wrap;html=1;" vertex="1" parent="1">
          <mxGeometry x="700" y="1080" width="190" height="120" as="geometry" />
        </mxCell>
        <mxCell id="ksHiljcpxTpXcH98oOzH-20" value="Accettata" style="text;strokeColor=none;fillColor=none;align=center;verticalAlign=middle;spacingLeft=4;spacingRight=4;overflow=hidden;points=[[0,0.5],[1,0.5]];portConstraint=eastwest;rotatable=0;whiteSpace=wrap;html=1;" vertex="1" parent="ksHiljcpxTpXcH98oOzH-19">
          <mxGeometry y="30" width="190" height="30" as="geometry" />
        </mxCell>
        <mxCell id="ksHiljcpxTpXcH98oOzH-21" value="Rifiutata" style="text;strokeColor=none;fillColor=none;align=center;verticalAlign=middle;spacingLeft=4;spacingRight=4;overflow=hidden;points=[[0,0.5],[1,0.5]];portConstraint=eastwest;rotatable=0;whiteSpace=wrap;html=1;" vertex="1" parent="ksHiljcpxTpXcH98oOzH-19">
          <mxGeometry y="60" width="190" height="30" as="geometry" />
        </mxCell>
        <mxCell id="ksHiljcpxTpXcH98oOzH-22" value="Attesa" style="text;strokeColor=none;fillColor=none;align=center;verticalAlign=middle;spacingLeft=4;spacingRight=4;overflow=hidden;points=[[0,0.5],[1,0.5]];portConstraint=eastwest;rotatable=0;whiteSpace=wrap;html=1;" vertex="1" parent="ksHiljcpxTpXcH98oOzH-19">
          <mxGeometry y="90" width="190" height="30" as="geometry" />
        </mxCell>
        <mxCell id="ksHiljcpxTpXcH98oOzH-24" style="edgeStyle=orthogonalEdgeStyle;rounded=0;orthogonalLoop=1;jettySize=auto;html=1;exitX=0;exitY=0.5;exitDx=0;exitDy=0;entryX=0.5;entryY=0;entryDx=0;entryDy=0;endArrow=none;startFill=0;" edge="1" parent="1" source="-MTlHBFxC1dhgQvG2mJh-72" target="-MTlHBFxC1dhgQvG2mJh-1">
          <mxGeometry relative="1" as="geometry" />
        </mxCell>
        <mxCell id="ksHiljcpxTpXcH98oOzH-25" value="+Creare&lt;div&gt;0.*&lt;/div&gt;" style="text;html=1;align=center;verticalAlign=middle;resizable=0;points=[];autosize=1;strokeColor=none;fillColor=none;" vertex="1" parent="1">
          <mxGeometry x="335" y="1180" width="70" height="40" as="geometry" />
        </mxCell>
        <mxCell id="ksHiljcpxTpXcH98oOzH-26" value="+Creata da&lt;div&gt;1&lt;/div&gt;" style="text;html=1;align=center;verticalAlign=middle;resizable=0;points=[];autosize=1;strokeColor=none;fillColor=none;" vertex="1" parent="1">
          <mxGeometry x="340" y="1360" width="80" height="40" as="geometry" />
        </mxCell>
        <mxCell id="ksHiljcpxTpXcH98oOzH-28" value="+Si Riferisce&lt;div&gt;1.*&lt;/div&gt;" style="text;html=1;align=center;verticalAlign=middle;resizable=0;points=[];autosize=1;strokeColor=none;fillColor=none;" vertex="1" parent="1">
          <mxGeometry x="160" y="1802.01" width="90" height="40" as="geometry" />
        </mxCell>
        <mxCell id="ksHiljcpxTpXcH98oOzH-29" value="+È offerto&lt;div&gt;0.*&lt;/div&gt;" style="text;html=1;align=center;verticalAlign=middle;resizable=0;points=[];autosize=1;strokeColor=none;fillColor=none;" vertex="1" parent="1">
          <mxGeometry x="140" y="900" width="80" height="40" as="geometry" />
        </mxCell>
        <mxCell id="ksHiljcpxTpXcH98oOzH-31" value="+Ha&lt;div&gt;0.*&lt;/div&gt;" style="text;html=1;align=center;verticalAlign=middle;resizable=0;points=[];autosize=1;strokeColor=none;fillColor=none;" vertex="1" parent="1">
          <mxGeometry x="499.26" y="1188.99" width="50" height="40" as="geometry" />
        </mxCell>
        <mxCell id="ksHiljcpxTpXcH98oOzH-32" value="+Riferita&lt;div&gt;1&lt;/div&gt;" style="text;html=1;align=center;verticalAlign=middle;resizable=0;points=[];autosize=1;strokeColor=none;fillColor=none;" vertex="1" parent="1">
          <mxGeometry x="724.44" y="1393.82" width="70" height="40" as="geometry" />
        </mxCell>
        <mxCell id="ksHiljcpxTpXcH98oOzH-34" value="Categoria&lt;b&gt;&amp;lt;&amp;lt;enum&amp;gt;&amp;gt;&lt;/b&gt;" style="swimlane;fontStyle=0;childLayout=stackLayout;horizontal=1;startSize=30;horizontalStack=0;resizeParent=1;resizeParentMax=0;resizeLast=0;collapsible=1;marginBottom=0;whiteSpace=wrap;html=1;" vertex="1" parent="1">
          <mxGeometry x="249.26" y="1920" width="190" height="120" as="geometry" />
        </mxCell>
        <mxCell id="ksHiljcpxTpXcH98oOzH-35" value="Abbigliamento" style="text;strokeColor=none;fillColor=none;align=center;verticalAlign=middle;spacingLeft=4;spacingRight=4;overflow=hidden;points=[[0,0.5],[1,0.5]];portConstraint=eastwest;rotatable=0;whiteSpace=wrap;html=1;" vertex="1" parent="ksHiljcpxTpXcH98oOzH-34">
          <mxGeometry y="30" width="190" height="30" as="geometry" />
        </mxCell>
        <mxCell id="ksHiljcpxTpXcH98oOzH-36" value="Eletronica" style="text;strokeColor=none;fillColor=none;align=center;verticalAlign=middle;spacingLeft=4;spacingRight=4;overflow=hidden;points=[[0,0.5],[1,0.5]];portConstraint=eastwest;rotatable=0;whiteSpace=wrap;html=1;" vertex="1" parent="ksHiljcpxTpXcH98oOzH-34">
          <mxGeometry y="60" width="190" height="30" as="geometry" />
        </mxCell>
        <mxCell id="ksHiljcpxTpXcH98oOzH-37" value="Cancelleria" style="text;strokeColor=none;fillColor=none;align=center;verticalAlign=middle;spacingLeft=4;spacingRight=4;overflow=hidden;points=[[0,0.5],[1,0.5]];portConstraint=eastwest;rotatable=0;whiteSpace=wrap;html=1;" vertex="1" parent="ksHiljcpxTpXcH98oOzH-34">
          <mxGeometry y="90" width="190" height="30" as="geometry" />
        </mxCell>
      </root>
    </mxGraphModel>
  </diagram>
</mxfile>
